<?xml version="1.0" encoding="UTF-8"?>
<svg xmlns="http://www.w3.org/2000/svg" xmlns:xlink="http://www.w3.org/1999/xlink" width="24px" height="29px" viewBox="0 0 24 29" version="1.1">
<g id="surface1">
<path style=" stroke:none;fill-rule:nonzero;fill:rgb(76.078431%,64.705882%,90.980392%);fill-opacity:1;" d="M 22.652344 18.433594 L 21.84375 18.433594 C 21.796875 18.433594 21.753906 18.410156 21.730469 18.371094 C 21.707031 18.328125 21.707031 18.28125 21.730469 18.242188 L 22.011719 17.753906 C 22.089844 17.621094 22.089844 17.460938 22.011719 17.328125 L 20.796875 15.222656 L 18.9375 18.433594 L 18.320312 18.433594 C 18.277344 18.433594 18.234375 18.410156 18.210938 18.367188 C 18.1875 18.328125 18.1875 18.28125 18.210938 18.238281 L 20.253906 14.707031 C 20.332031 14.574219 20.332031 14.410156 20.253906 14.277344 L 19.039062 12.175781 L 11.980469 24.371094 L 11.660156 23.816406 C 11.597656 23.710938 11.597656 23.578125 11.660156 23.472656 L 18.496094 11.667969 C 18.570312 11.535156 18.570312 11.371094 18.496094 11.238281 L 17.277344 9.132812 L 10.21875 21.328125 L 9.898438 20.773438 C 9.835938 20.667969 9.835938 20.535156 9.898438 20.429688 L 16.734375 8.621094 C 16.8125 8.488281 16.8125 8.328125 16.734375 8.195312 L 15.519531 6.089844 L 8.375 18.433594 L 7.761719 18.433594 C 7.714844 18.433594 7.671875 18.410156 7.648438 18.371094 C 7.625 18.328125 7.625 18.28125 7.648438 18.242188 L 14.976562 5.578125 C 15.050781 5.445312 15.050781 5.285156 14.976562 5.152344 L 13.757812 3.046875 L 4.851562 18.433594 L 4.234375 18.433594 C 4.1875 18.433594 4.148438 18.410156 4.125 18.371094 C 4.101562 18.328125 4.101562 18.28125 4.125 18.242188 L 13.21875 2.53125 C 13.292969 2.398438 13.292969 2.234375 13.21875 2.105469 L 12 0 L 0.0078125 20.75 L 7.203125 20.75 L 11.980469 29 L 16.757812 20.75 L 23.992188 20.75 Z M 22.652344 18.433594 "/>
</g>
</svg>
